<?xml version="1.0" encoding="UTF-8"?><svg id="Laag_1" xmlns="http://www.w3.org/2000/svg" viewBox="0 0 477 241"><defs><style>.cls-1{fill:#fff;}.cls-2{fill:#4e7141;}</style></defs><path class="cls-2" d="M290,42.17c-.45,.51-.82,1.12-1.35,1.51-6.33,4.77-9.98,11.12-11.36,18.87-.62,3.5-1.17,7.04-2.74,10.27-3.42,7.02-9.13,10.95-16.85,11.81-6.97,.78-13.19-1.16-18.56-5.7-.21-.17-.43-.33-.84-.64-.84,2.49-1.68,4.84-2.41,7.23-.51,1.68-.91,3.4-1.23,5.13-.11,.57,.03,1.32,.33,1.81,1.94,3.16,3.65,6.42,4.83,9.95,.13,.39,.25,.78,.41,1.26-1.37,.34-2.66,.67-4.03,1.01-2.08-6.22-5.4-11.61-9.81-16.64-.74,.8-1.33,1.63-2.09,2.24-6,4.83-12.62,6.06-19.75,2.95-4.64-2.03-7.22-5.91-8.73-10.63-.9-2.82-1.75-5.68-2.98-8.36-1.54-3.36-4.13-5.93-7.26-7.92-.23-.15-.47-.29-.69-.46-1.54-1.13-1.35-3.01,.41-3.77,3.53-1.51,7.21-2.6,10.99-3.27,4.41-.78,8.84-1.1,13.31-.67,5.5,.54,10.73,1.93,14.85,5.85,5.26,5,6.97,11.18,5.02,18.15-.51,1.82-.4,3.04,1.01,4.19,.18,.15,.33,.34,.61,.64,.15-.42,.26-.72,.36-1.03,1.19-3.45,2.37-6.91,3.6-10.35,.23-.64,.23-1.11-.11-1.73-4.91-8.9-4.34-17.56,1.5-25.8,2.64-3.72,6.39-6.16,10.55-7.96,7.26-3.13,14.92-3.89,22.72-3.66,6.14,.18,12.15,1.2,18.03,2.99,1.07,.33,1.87,.82,2.28,1.88v.83Zm-52.33,27.74c.49-.81,.86-1.43,1.23-2.05,3.45-5.63,7.71-10.53,13.13-14.37,4.52-3.19,9.47-5.4,14.85-6.67,.68-.16,.96,0,1.08,.65,.12,.68,.29,1.35,.44,2.03,.31,1.44,.31,1.45-1.09,1.79-3.11,.74-6.07,1.89-8.87,3.42-7.48,4.05-12.85,10.14-16.93,17.49-1.22,2.2-1.21,2.2,.79,3.78,4.66,3.72,9.96,5.2,15.82,4.28,5.82-.91,10.27-3.96,12.55-9.49,1.1-2.65,1.72-5.54,2.26-8.37,1.12-5.94,3.12-11.46,6.97-16.2,.97-1.19,2.03-2.31,3.12-3.53-.39-.1-.69-.19-.99-.26-6.41-1.46-12.89-1.98-19.45-1.48-5.21,.4-10.28,1.36-15,3.67-7.28,3.55-11.35,9.25-11.52,17.49-.06,2.66,.42,5.21,1.63,7.82Zm-46.83-5.52c-.06,.19-.12,.38-.19,.57,.31,.21,.65,.39,.93,.65,2.48,2.27,4.49,4.91,5.73,8.04,.95,2.4,1.7,4.89,2.5,7.35,.69,2.12,1.52,4.16,3.07,5.81,3.64,3.87,9.56,4.91,14.85,2.58,2.21-.97,4.14-2.31,5.74-4.53-2.66-2.07-5.2-4.21-7.89-6.11-4.19-2.96-8.77-5.26-13.57-7.08-.8-.3-1.01-.66-.64-1.45,.34-.72,.6-1.47,.84-2.23,.22-.67,.55-.82,1.23-.55,7.33,2.87,14.1,6.68,20.1,11.81,.59,.5,1.18,1.01,1.88,1.61,.81-3.26,.57-6.27-.68-9.18-2-4.65-5.83-7.04-10.48-8.33-4.6-1.28-9.3-1.34-13.98-.7-3.17,.43-6.3,1.15-9.44,1.74Z"/><path class="cls-1" d="M237.67,69.91c-1.21-2.61-1.69-5.16-1.63-7.82,.18-8.24,4.25-13.94,11.52-17.49,4.73-2.31,9.79-3.27,15-3.67,6.57-.5,13.04,.03,19.45,1.48,.3,.07,.6,.16,.99,.26-1.08,1.22-2.14,2.34-3.12,3.53-3.86,4.74-5.86,10.26-6.97,16.2-.53,2.84-1.16,5.72-2.26,8.37-2.29,5.52-6.73,8.58-12.55,9.49-5.86,.92-11.17-.56-15.82-4.28-1.99-1.59-2.01-1.58-.79-3.78,4.07-7.35,9.45-13.44,16.93-17.49,2.81-1.52,5.76-2.67,8.87-3.42,1.41-.33,1.4-.35,1.09-1.79-.14-.68-.31-1.35-.44-2.03-.12-.65-.4-.81-1.08-.65-5.38,1.27-10.33,3.48-14.85,6.67-5.42,3.83-9.68,8.73-13.13,14.37-.38,.62-.75,1.24-1.23,2.05Z"/><path class="cls-1" d="M190.84,64.39c3.15-.59,6.27-1.31,9.44-1.74,4.69-.64,9.38-.58,13.98,.7,4.66,1.3,8.49,3.69,10.48,8.33,1.25,2.91,1.49,5.92,.68,9.18-.71-.6-1.29-1.11-1.88-1.61-6-5.13-12.77-8.94-20.1-11.81-.68-.27-1.01-.12-1.23,.55-.25,.75-.5,1.51-.84,2.23-.37,.78-.16,1.14,.64,1.45,4.8,1.82,9.37,4.12,13.57,7.08,2.7,1.91,5.23,4.04,7.89,6.11-1.59,2.22-3.52,3.56-5.74,4.53-5.28,2.32-11.21,1.29-14.85-2.58-1.55-1.65-2.38-3.69-3.07-5.81-.8-2.46-1.55-4.94-2.5-7.35-1.24-3.13-3.25-5.77-5.73-8.04-.28-.25-.62-.43-.93-.65,.06-.19,.12-.38,.19-.57Z"/><g><path class="cls-2" d="M55.3,169.88v-50.14h16.24c6.16,0,10.17,.25,12.04,.75,2.87,.75,5.28,2.39,7.22,4.91s2.91,5.77,2.91,9.76c0,3.08-.56,5.67-1.68,7.76s-2.54,3.75-4.26,4.95-3.47,1.98-5.25,2.37c-2.42,.48-5.92,.72-10.5,.72h-6.6v18.91h-10.12Z"/><path class="cls-2" d="M101.95,169.88v-50.14h9.61v50.14h-9.61Z"/><path class="cls-2" d="M128.59,144.64l-8.72-1.57c.98-3.51,2.67-6.11,5.06-7.8s5.95-2.53,10.67-2.53c4.29,0,7.48,.51,9.58,1.53s3.57,2.3,4.43,3.86,1.28,4.42,1.28,8.6l-.1,11.22c0,3.19,.15,5.55,.46,7.07s.88,3.13,1.73,4.87h-9.51c-.25-.64-.56-1.58-.92-2.84-.16-.57-.27-.95-.34-1.13-1.64,1.6-3.4,2.79-5.27,3.59s-3.86,1.2-5.98,1.2c-3.74,0-6.69-1.01-8.84-3.04s-3.23-4.59-3.23-7.69c0-2.05,.49-3.88,1.47-5.48s2.35-2.84,4.12-3.69,4.31-1.61,7.64-2.25c4.49-.84,7.6-1.63,9.34-2.36v-.96c0-1.85-.46-3.16-1.37-3.94s-2.63-1.19-5.16-1.19c-1.71,0-3.04,.34-4,1.01s-1.73,1.85-2.33,3.53Z"/><path class="cls-2" d="M193.4,169.88h-9.61v-18.54c0-3.92-.21-6.45-.62-7.6s-1.08-2.05-2-2.69-2.03-.96-3.33-.96c-1.66,0-3.16,.46-4.48,1.37-1.32,.91-2.23,2.12-2.72,3.63s-.74,4.29-.74,8.34v16.45h-9.61v-36.32h8.93v5.34c3.17-4.1,7.16-6.16,11.97-6.16,2.12,0,4.06,.39,5.81,1.15s3.08,1.73,3.98,2.92,1.53,2.53,1.88,4.04,.53,3.66,.53,6.46v22.57Z"/><path class="cls-2" d="M219.8,133.56v7.66h-6.57v14.64c0,2.96,.06,4.7,.19,5.19s.41,.89,.85,1.21,.99,.48,1.62,.48c.89,0,2.18-.31,3.86-.92l.82,7.46c-2.23,.96-4.77,1.44-7.59,1.44-1.73,0-3.29-.28-4.69-.87s-2.41-1.33-3.06-2.26-1.1-2.18-1.35-3.75c-.21-1.12-.31-3.37-.31-6.77v-15.83h-4.41v-7.66h4.41v-7.22l9.64-5.61v12.82h6.57Z"/><path class="cls-2" d="M243.43,153.57l9.85-.96c.59,3.31,1.8,5.73,3.61,7.28s4.26,2.33,7.34,2.33c3.26,0,5.72-.68,7.37-2.06s2.48-3,2.48-4.84c0-1.19-.35-2.19-1.04-3.02s-1.91-1.56-3.64-2.18c-1.19-.41-3.89-1.14-8.11-2.19-5.43-1.35-9.23-3-11.42-4.96-3.08-2.76-4.62-6.12-4.62-10.09,0-2.55,.72-4.94,2.17-7.16s3.53-3.92,6.26-5.08c2.72-1.16,6.01-1.74,9.87-1.74,6.29,0,11.03,1.38,14.21,4.14s4.85,6.44,5.01,11.05l-10.12,.44c-.43-2.58-1.36-4.42-2.79-5.55s-3.56-1.7-6.41-1.7-5.24,.6-6.91,1.81c-1.07,.78-1.61,1.81-1.61,3.11,0,1.19,.5,2.2,1.5,3.04,1.28,1.07,4.38,2.19,9.3,3.35s8.57,2.37,10.93,3.61,4.21,2.94,5.54,5.1c1.33,2.15,2,4.81,2,7.98,0,2.87-.8,5.56-2.39,8.07s-3.85,4.38-6.77,5.6-6.55,1.82-10.91,1.82c-6.34,0-11.21-1.46-14.6-4.39s-5.43-7.2-6.09-12.81Z"/><path class="cls-2" d="M299.41,169.88l-11.49-36.32h9.34l6.81,23.8,6.26-23.8h9.27l6.05,23.8,6.94-23.8h9.47l-11.66,36.32h-9.23l-6.26-23.36-6.16,23.36h-9.34Z"/><path class="cls-2" d="M354.31,144.64l-8.72-1.57c.98-3.51,2.67-6.11,5.06-7.8s5.95-2.53,10.67-2.53c4.29,0,7.48,.51,9.58,1.53s3.57,2.3,4.43,3.86,1.28,4.42,1.28,8.6l-.1,11.22c0,3.19,.15,5.55,.46,7.07s.88,3.13,1.73,4.87h-9.51c-.25-.64-.56-1.58-.92-2.84-.16-.57-.27-.95-.34-1.13-1.64,1.6-3.4,2.79-5.27,3.59s-3.86,1.2-5.98,1.2c-3.74,0-6.69-1.01-8.84-3.04s-3.23-4.59-3.23-7.69c0-2.05,.49-3.88,1.47-5.48s2.35-2.84,4.12-3.69,4.31-1.61,7.64-2.25c4.49-.84,7.6-1.63,9.34-2.36v-.96c0-1.85-.46-3.16-1.37-3.94s-2.63-1.19-5.16-1.19c-1.71,0-3.04,.34-4,1.01s-1.73,1.85-2.33,3.53Z"/><path class="cls-2" d="M385.8,133.56h8.96v5.34c1.16-1.82,2.74-3.31,4.72-4.45s4.18-1.71,6.6-1.71c4.22,0,7.8,1.65,10.74,4.96,2.94,3.31,4.41,7.91,4.41,13.82s-1.48,10.78-4.45,14.15-6.55,5.04-10.77,5.04c-2.01,0-3.82-.4-5.45-1.2s-3.35-2.17-5.15-4.1v18.3h-9.61v-50.14Z"/></g></svg>